<?xml version="1.0" standalone="no"?>
<!DOCTYPE svg PUBLIC "-//W3C//DTD SVG 20010904//EN"
 "http://www.w3.org/TR/2001/REC-SVG-20010904/DTD/svg10.dtd">
<svg version="1.0" xmlns="http://www.w3.org/2000/svg"
 width="560.000000pt" height="560.000000pt" viewBox="0 0 560.000000 560.000000"
 preserveAspectRatio="xMidYMid meet">
<metadata>
Created by potrace 1.14, written by Peter Selinger 2001-2017
</metadata>
<g transform="translate(0.000000,560.000000) scale(0.100000,-0.100000)"
fill="#000000" stroke="none">
<path d="M0 2800 l0 -2800 2800 0 2800 0 0 2800 0 2800 -2800 0 -2800 0 0
-2800z m2158 1233 c2 -579 3 -593 22 -593 15 0 19 -8 22 -42 l3 -43 618 -3
617 -2 0 -595 0 -595 -620 0 -620 0 0 591 c0 582 0 591 -20 596 -16 4 -20 14
-20 49 l0 44 -620 0 -620 0 0 570 0 571 25 25 24 24 593 -2 593 -3 3 -592z
m2560 0 l2 -593 -620 0 -620 0 0 570 0 571 25 25 24 24 593 -2 593 -3 3 -592z
m-2558 -2558 l0 -595 -620 0 -620 0 0 570 0 571 25 24 24 25 596 0 595 0 0
-595z"/>
</g>
</svg>
